inDegrees=no
num_controls=7
num_derivatives=13
num_iterations=77
num_multipliers=7
num_parameters=0
num_slacks=7
num_states=26
objective=0.454525
objective_accelerations=0.044561
objective_balance=0.000800
objective_effort=0.036436
objective_height=0.366662
objective_ligament=0.006066
solver_duration=873.080865
status=Solve_Succeeded
success=true
DataType=double
version=3
OpenSimVersion=4.5
endheader
time	/jointset/ground_pelvis/pelvis_tilt/value	/jointset/ground_pelvis/pelvis_tx/value	/jointset/ground_pelvis/pelvis_ty/value	/jointset/hip_r/hip_flexion_r/value	/jointset/hip_r/hip_adduction_r/value	/jointset/hip_r/hip_rotation_r/value	/jointset/back/lumbar_extension/value	/jointset/patellofemoral_r/patellar_flexion_r/value	/jointset/knee_r/knee_flexion_r/value	/jointset/knee_r/knee_adduction_r/value	/jointset/knee_r/knee_rotation_r/value	/jointset/ankle_r/ankle_angle_r/value	/jointset/subtalar_r/subtalar_angle_r/value	/jointset/ground_pelvis/pelvis_tilt/speed	/jointset/ground_pelvis/pelvis_tx/speed	/jointset/ground_pelvis/pelvis_ty/speed	/jointset/hip_r/hip_flexion_r/speed	/jointset/hip_r/hip_adduction_r/speed	/jointset/hip_r/hip_rotation_r/speed	/jointset/back/lumbar_extension/speed	/jointset/patellofemoral_r/patellar_flexion_r/speed	/jointset/knee_r/knee_flexion_r/speed	/jointset/knee_r/knee_adduction_r/speed	/jointset/knee_r/knee_rotation_r/speed	/jointset/ankle_r/ankle_angle_r/speed	/jointset/subtalar_r/subtalar_angle_r/speed	/forceset/tau_hip_flexion_r	/forceset/tau_hip_adduction_r	/forceset/tau_hip_rotation_r	/forceset/tau_knee_flexion_r	/forceset/tau_ankle_angle_r	/forceset/tau_subtalar_angle_r	/forceset/tau_lumbar_extension	lambda_cid13_p0	lambda_cid14_p0	lambda_cid14_p1	lambda_cid14_p2	lambda_cid14_p3	lambda_cid14_p4	lambda_cid14_p5	/jointset/ground_pelvis/pelvis_tilt/accel	/jointset/ground_pelvis/pelvis_tx/accel	/jointset/ground_pelvis/pelvis_ty/accel	/jointset/hip_r/hip_flexion_r/accel	/jointset/hip_r/hip_adduction_r/accel	/jointset/hip_r/hip_rotation_r/accel	/jointset/back/lumbar_extension/accel	/jointset/patellofemoral_r/patellar_flexion_r/accel	/jointset/knee_r/knee_flexion_r/accel	/jointset/knee_r/knee_adduction_r/accel	/jointset/knee_r/knee_rotation_r/accel	/jointset/ankle_r/ankle_angle_r/accel	/jointset/subtalar_r/subtalar_angle_r/accel	gamma_cid13_p0	gamma_cid14_p0	gamma_cid14_p1	gamma_cid14_p2	gamma_cid14_p3	gamma_cid14_p4	gamma_cid14_p5
0.5	-0.1258853332089269	0.03327174938141519	0.8144139704727289	0.8499440910242502	-0.2516630258931861	-0.05602029234250622	-0.6470169794628595	0.9366395770490168	0.9366395770490139	0.06343300436192079	0.173781423225653	0.2874695989096099	0.09069199062724539	-0.3310553818631306	-0.1903825251088255	-0.4627600111887605	1.756506908159985	-0.04034032008099418	0.5059720456998987	-0.7306923233640457	1.874781089062932	1.874781089062914	-0.07712647899594899	-0.005031733526430135	0.5254882353313135	0.1076831700637711	-0.189731589991589	0.003514658340773582	0.03528137750376211	-0.2904331729303513	-0.0004678122893214893	-0.01396368177862188	0.2361051443716874	-8.897265385973473	-43.43528426696972	-12.27861066865737	0.7906009995911412	-3.894426035359195	-644.28585451416	58.61086072779192	0.2142166625411258	0.5469365040111711	-0.3652101236843338	-1.159643562206644	0.2336530167118581	-0.1902150304782729	1.788677489749346	-1.369885600929573	-1.369885600929573	0.3894260401418491	-0.0004577822371766888	-0.4495121679349103	0.2733099328141922	-5.129007200285721e-08	3.092630418169241e-08	1.264028066085333e-06	4.545514006049836e-08	-1.478811598797299e-07	-1.168757978623783e-07	8.226402132901027e-07
0.51	-0.1291844785946849	0.03139540284020168	0.8097691512712198	0.8674484959524321	-0.2520550604984107	-0.05097217216938544	-0.6542339855151609	0.9553161148695176	0.9553161148695161	0.06268064012041273	0.1737326867376406	0.2927009921327063	0.09178180048387705	-0.3287232386728246	-0.1848745530438301	-0.4661025204254486	1.744142732721012	-0.03805819972810033	0.5035821390903781	-0.712635722269671	1.86027408121103	1.860274081211018	-0.07338894487148138	-0.00471834729826867	0.5207133421133858	0.1102753045473122	-0.1956721136059408	0.004620301626421548	0.03599268063060844	-0.2950455531173528	-0.00167468971158366	-0.01380745597258416	0.2416567356120231	-7.940107302978129	-44.10516272531274	-12.47415363185739	0.9886584273798505	-3.756995713502101	-648.7170209071685	58.75308528829041	0.2502876523495373	0.5545289996588482	-0.3035988307426753	-1.309499987433353	0.2268523608118544	-0.2739595847224162	1.825126143264115	-1.528957128699105	-1.528957128698094	0.3597228508447562	0.04687465464140506	-0.5030753500792343	0.2518699120807684	-4.887880360125481e-08	3.977553566425533e-08	1.375967757194276e-06	1.057128562427453e-07	-1.653718849944168e-07	-1.137444671173246e-07	9.044986871976186e-07
0.52	-0.132458787647525	0.02957449630802115	0.8050939414759277	0.8848223200356865	-0.2524240017368596	-0.04595006728406648	-0.661268230611722	0.9738400128612238	0.9738400128612236	0.06196441237059853	0.1736870116777695	0.297882316933352	0.09289747262653542	-0.3260881152795463	-0.1792945233022299	-0.4688381299454015	1.730390739174418	-0.03572164672585917	0.500768988139519	-0.6941401322159938	1.844253123303987	1.844253123303981	-0.06989918065718566	-0.004419447898163325	0.515474550841159	0.1128556272691213	-0.2016126372202925	0.005725944912069687	0.0367039837574545	-0.2996579333043977	-0.002881567133845781	-0.01365123016654615	0.2472083268523563	-7.040418187105213	-44.77438358162009	-12.66458742187415	1.18019685478619	-3.644446700605786	-653.1398008946793	58.92675505220785	0.2748127031355801	0.5613480393321192	-0.24383018033729	-1.437207183730021	0.2445395465813341	-0.2748638987460117	1.876475281609799	-1.67267561195749	-1.672675611957943	0.3398720581074697	-0.003355147848401043	-0.5422917787944737	0.2709475804677842	-4.335509807923066e-08	4.181758862945097e-08	1.342571446488527e-06	1.368526303109617e-07	-1.654000220173089e-07	-1.030229112638957e-07	8.944412773526285e-07
0.53	-0.1357052445208299	0.02780970582253009	0.8003944295419491	0.9020517789151543	-0.2527694493123595	-0.04095822068739125	-0.6681153997091667	0.992196309993562	0.9921963099935616	0.0612819717403664	0.1736444148771375	0.3030089930628195	0.09403867562787026	-0.3231502381542287	-0.1736553459659779	-0.4709603075251775	1.715271240176071	-0.03337624777606653	0.4975305322474532	-0.675231680910058	1.82676786471275	1.82676786471276	-0.06660757886785895	-0.004080813772381042	0.5097876532331526	0.1153559836892397	-0.2074935156509808	0.006762325070842436	0.03736872808548242	-0.3043137435758327	-0.004174555129441202	-0.01353344374294712	0.2526780700616802	-6.199048055301481	-45.48047015614068	-12.87738076708488	1.374398236052659	-3.464570334743767	-657.6243706333299	59.07434121207117	0.3112342137798234	0.5664036723121613	-0.1808386263028295	-1.58378432527315	0.2283833728546933	-0.358897860242369	1.907331009522043	-1.82220865959284	-1.822208659590206	0.3211891905933451	0.05540671390152756	-0.5928783222807115	0.2354573769309113	-3.820488180917539e-08	4.290039332878378e-08	1.299067903571103e-06	1.608621376197638e-07	-1.639750533551056e-07	-9.225577434037862e-08	8.789674081867897e-07
0.54	-0.1389207308235715	0.02610154732870959	0.7956768104162717	0.9191231501911613	-0.2530916742376262	-0.03600087093479774	-0.6747716241026649	1.010370603004611	1.01037060300461	0.06063192411827716	0.1736057912219852	0.3080766023021108	0.09520405773423568	-0.3198940011669125	-0.1679681249681185	-0.4724595682851564	1.698773218482282	-0.03107711667921527	0.4938696193231666	-0.6559511914266971	1.807852299046071	1.807852299046099	-0.06342057902860922	-0.003624818802196119	0.5036611728059058	0.1176914482752394	-0.2133743940816691	0.007798705229615293	0.03803347241351011	-0.3089695538472678	-0.005467543125036584	-0.01341565731934791	0.2581478132710041	-5.416301458158862	-46.18634062773642	-13.08525538786474	1.562240109337545	-3.30977363511311	-662.1072083405869	59.25169817149332	0.3384846755352643	0.5709567716535966	-0.1192468163778791	-1.712911722818153	0.2352859759930616	-0.3593553051901788	1.95088291709481	-1.958737027045891	-1.958737027045888	0.3189516680920788	0.02011702103245242	-0.6302083426586162	0.2379692136440284	-3.346788769023461e-08	4.292190207439598e-08	1.244381890972676e-06	1.769828391521926e-07	-1.609423932966266e-07	-8.143820729676386e-08	8.575008606234161e-07
0.55	-0.1421021328293041	0.02445045717204461	0.7909473220674161	0.9360228121093073	-0.2533911459893035	-0.03108206309153143	-0.6812332497382289	1.028348753506142	1.028348753506143	0.06001324632328107	0.173572146850616	0.3130808352971354	0.09639195889594256	-0.3163354096634077	-0.1622456211128879	-0.4733322730335037	1.680936219326751	-0.0288288744925119	0.4898340598927109	-0.6363236365013787	1.787551341605409	1.787551341605413	-0.06032438792291035	-0.003091392107958614	0.4971191175105645	0.1198547691273781	-0.2190995790590042	0.008756078348850138	0.03865613663787738	-0.3137426830619501	-0.00671108482941898	-0.0133453883266173	0.2634555453267661	-4.692008529757191	-46.88275915647265	-13.3129736592602	1.754230068087659	-3.118135298956354	-666.5996436140308	59.41321477090699	0.3721999727896353	0.5735081226131452	-0.05542314374221678	-1.852529970304377	0.217940299131372	-0.4344187183353488	1.976236657956178	-2.099737873959197	-2.099737873962939	0.3037030061946915	0.07193071993775677	-0.6761843592200041	0.2006239255231853	-2.916403528312297e-08	4.251547948148665e-08	1.187412111799961e-06	1.888402011618042e-07	-1.572614629259741e-07	-7.115164713423033e-08	8.337129509957585e-07
0.5600000000000001	-0.1452464182029953	0.02285671423996301	0.7862122785031415	0.9527374168442211	-0.2536684659272892	-0.02620536333384204	-0.6874970908489985	1.046117101878989	1.046117101878992	0.05942528047421981	0.1735442317914529	0.3180176516919569	0.0976005153470757	-0.312470674758643	-0.1564986800514428	-0.4735706113690136	1.661761781835866	-0.02664675394091521	0.4854480022077722	-0.6163942864678278	1.76589187330943	1.765891873309409	-0.05727818984164905	-0.002478956360986812	0.490177852765298	0.1218225061604927	-0.2248247640363392	0.009713451468085058	0.03927880086224438	-0.3185158122766157	-0.007954626533801358	-0.01327511933388656	0.2687632773825036	-4.025600633646533	-47.57966691447827	-13.53600663519391	1.94002349389515	-2.951526120246016	-671.1013027084965	59.60344450356143	0.3997133557872116	0.5758442128965086	0.007626466189582328	-1.980399389889272	0.2220616489717221	-0.4294549560867483	2.011241938741286	-2.230439198109721	-2.230439198109404	0.3089530632045641	0.03591883157931233	-0.7100502326437573	0.1988524498392219	-2.537995293020628e-08	4.15955392823515e-08	1.127701812738099e-06	1.955815557440352e-07	-1.528026081807136e-07	-6.150229522899427e-08	8.071394068909603e-07
0.5700000000000001	-0.1483505871575766	0.02132051201937507	0.781478024680833	0.9692537514812166	-0.2539242593420156	-0.02137412909136623	-0.693560214415782	1.063662214406007	1.063662214406009	0.05886747760387553	0.1735226292456083	0.3228831400800423	0.09882782330501787	-0.3083134594670231	-0.1507421385191814	-0.4731731797881712	1.641289193163854	-0.024522530261399	0.4807469244145462	-0.5961936918744315	1.742914935255703	1.742914935255703	-0.05429286690048092	-0.001838216604837746	0.4828597137359119	0.1236065712916142	-0.2303864962024439	0.01062677357550508	0.03985842394665071	-0.3233222841204589	-0.009234519384040742	-0.0132483588885501	0.2738867167254708	-3.416353480012737	-48.29144894690722	-13.78117058736867	2.130065662637662	-2.717114594688843	-675.5563342257968	59.76315884993977	0.431178277822238	0.5754728993504088	0.07183629089200017	-2.113076231088366	0.2060963011226184	-0.498290226666591	2.029978471798886	-2.363670986892552	-2.363670986889475	0.2918912503925207	0.07872949285842626	-0.7517435268753268	0.1635017707837207	-2.214336794839521e-08	4.023465651476454e-08	1.064169288233696e-06	1.97318358500681e-07	-1.476842243220176e-07	-5.21354698029861e-08	7.762217888815163e-07
0.58	-0.1514116934268471	0.01984185796930161	0.7767509521317052	0.9855588827064455	-0.2541591118052106	-0.01659147683396778	-0.6994202299861995	1.080971087576911	1.08097108757691	0.05833924183110682	0.1735075496863704	0.3276736375200753	0.1000720355594783	-0.3038581376964891	-0.1449890459485464	-0.4721343567329112	1.619521099482594	-0.02245856363464178	0.4757316051922783	-0.5757726871946558	1.718644002086444	1.718644002086464	-0.05136477032652947	-0.001174359039655773	0.475179663154806	0.1252033654641401	-0.2359482283685487	0.01154009568292535	0.04043804703105697	-0.3281287559643021	-0.01051441223428005	-0.01322159844321323	0.279010156068438	-2.863008574017338	-49.00451617015778	-14.02197745169676	2.314179499669013	-2.507014373597316	-680.0325656062355	59.95067739003326	0.4593346515700114	0.5751544205712462	0.1359047610731217	-2.239500391738834	0.2100102384198478	-0.4923032418950956	2.055323956017126	-2.489238221216067	-2.489238221216062	0.2975077897612301	0.04054239338629666	-0.7824325430025504	0.161398258120111	-1.961980279872171e-08	3.829952296035667e-08	9.95658981757614e-07	1.925376053914488e-07	-1.417069188272197e-07	-4.313658583829803e-08	7.39646772298581e-07
0.59	-0.1544268335381175	0.01842067402246281	0.7720374662176843	1.001640016820359	-0.2543736527004352	-0.01186033603281528	-0.7050750240883848	1.098030927227274	1.098030927227273	0.05784015029749606	0.1734991029731195	0.3323855851282989	0.1013312239269535	-0.2991224948794138	-0.1392520750904503	-0.4704554534435522	1.596496012958086	-0.02046560282099631	0.4704535416521064	-0.5551646324828043	1.693118024739307	1.693118024739297	-0.04844884782735792	-0.0005093914496431583	0.4671538178428553	0.1265919682559737	-0.241272808505654	0.01236948827696764	0.04097974648144269	-0.3329993801951219	-0.01173583272242722	-0.01323714617493923	0.2838879050250173	-2.363940445282929	-49.69810418761091	-14.27874629045779	2.501978091282513	-2.253140029952764	-684.4048404127004	60.11938813707863	0.4877905595325166	0.5722910267304692	0.1999814341203605	-2.365465107307113	0.1916123516179	-0.5520676258508794	2.066771342708346	-2.615159350231673	-2.615159350236358	0.2894583901844362	0.08038609699280272	-0.8210942097982228	0.1214128065126439	-1.725244907182113e-08	3.663985168294566e-08	9.316460130301206e-07	1.87914948117026e-07	-1.360506758986939e-07	-3.462976784465512e-08	7.050588765508087e-07
